<?xml version="1.0" standalone="no"?><!DOCTYPE svg PUBLIC "-//W3C//DTD SVG 1.1//EN" "http://www.w3.org/Graphics/SVG/1.1/DTD/svg11.dtd"><svg height="1024" node-id="1" sillyvg="true" template-height="1024" template-width="1024" version="1.1" viewBox="0 0 1024 1024" width="1024" xmlns="http://www.w3.org/2000/svg" xmlns:xlink="http://www.w3.org/1999/xlink"><defs node-id="29"></defs><g node-id="133"><path d="M 647.70 341.90 L 346.00 341.90 C 344.10 341.90 342.40 343.60 342.40 345.50 L 342.40 728.90 C 342.40 730.80 344.10 732.50 346.00 732.50 L 647.60 732.50 C 649.50 732.50 651.20 730.90 651.20 728.90 L 651.20 345.50 C 651.30 343.40 649.60 341.90 647.70 341.90 Z M 576.90 614.30 C 576.90 616.20 575.20 617.90 573.30 617.90 L 420.30 617.90 C 418.40 617.90 416.70 616.20 416.70 614.30 L 416.70 597.30 C 416.70 595.40 418.30 593.70 420.30 593.70 L 573.30 593.70 C 575.20 593.70 576.90 595.40 576.90 597.30 L 576.90 614.30 Z M 576.90 545.60 C 576.90 547.50 575.20 549.20 573.30 549.20 L 420.30 549.20 C 418.40 549.20 416.70 547.50 416.70 545.60 L 416.70 528.60 C 416.70 526.70 418.30 525.00 420.30 525.00 L 573.30 525.00 C 575.20 525.00 576.90 526.70 576.90 528.60 L 576.90 545.60 Z M 576.90 477.00 C 576.90 478.90 575.20 480.60 573.30 480.60 L 420.30 480.60 C 418.40 480.60 416.70 478.90 416.70 477.00 L 416.70 460.10 C 416.70 458.20 418.30 456.50 420.30 456.50 L 573.30 456.50 C 575.20 456.50 576.90 458.20 576.90 460.10 L 576.90 477.00 Z" fill="#b3b3b3" fill-opacity="0.35" fill-rule="nonzero" group-id="1" node-id="35" stroke="none" target-height="390.6" target-width="308.9" target-x="342.4" target-y="341.9"></path></g><g node-id="134"><g node-id="135"><path d="M 643.20 305.00 L 643.20 305.00 C 527.30 304.10 431.60 392.40 421.10 505.80 C 393.40 477.20 354.50 459.20 311.50 458.90 L 311.50 458.90 C 226.20 458.30 156.60 526.80 156.00 612.00 L 154.80 764.10 L 418.20 766.10 L 463.30 766.40 L 860.90 769.40 L 862.70 528.10 C 863.80 405.80 765.40 305.90 643.20 305.00 Z" fill="#b3b3b3" fill-opacity="0.1" fill-rule="nonzero" group-id="2,3" node-id="42" stroke="none" target-height="465.30002" target-width="709" target-x="154.8" target-y="304.1"></path></g><g node-id="136"><path d="M 275.40 290.90 C 270.30 290.90 265.60 292.60 261.90 295.20 C 262.20 293.70 262.40 292.20 262.40 290.70 C 262.60 278.20 252.50 268.00 239.90 267.90 C 227.30 267.80 217.30 277.80 217.10 290.40 C 217.10 290.90 217.10 291.30 217.10 291.80 C 214.70 290.90 212.00 290.30 209.30 290.30 C 196.90 290.10 186.70 300.20 186.50 312.80 C 186.30 325.10 196.10 335.20 208.30 335.60 L 208.30 335.60 L 275.20 336.00 C 287.60 336.20 297.80 326.10 298.00 313.50 C 298.00 300.90 287.80 291.00 275.40 290.90 Z" fill="#b3b3b3" fill-opacity="0.3" fill-rule="nonzero" group-id="2,4" node-id="47" stroke="none" target-height="68.400024" target-width="111.7" target-x="186.3" target-y="267.8"></path></g><g node-id="137"><path d="M 844.60 241.10 C 839.50 241.10 834.80 242.80 831.10 245.40 C 831.40 243.90 831.50 242.40 831.50 240.90 C 831.60 228.50 821.60 218.30 809.00 218.10 C 796.40 218.00 786.40 228.00 786.20 240.60 C 786.20 241.00 786.20 241.50 786.20 241.90 C 783.80 241.00 781.10 240.40 778.40 240.40 C 765.90 240.20 755.80 250.30 755.60 262.90 C 755.50 275.20 765.20 285.20 777.40 285.70 L 777.40 285.70 L 844.30 286.20 C 856.70 286.30 866.90 276.30 867.10 263.70 C 867.30 251.10 857.10 241.20 844.60 241.10 Z" fill="#b3b3b3" fill-opacity="0.3" fill-rule="nonzero" group-id="2,5" node-id="52" stroke="none" target-height="68.29999" target-width="111.79999" target-x="755.5" target-y="218"></path></g><g node-id="138"><g node-id="139"><path d="M 695.40 696.00 C 692.20 696.00 689.90 698.40 689.90 701.50 C 689.90 703.80 691.10 705.60 692.90 706.50 L 692.10 804.10 L 697.40 804.10 L 698.20 706.20 C 699.80 705.30 700.90 703.50 700.90 701.60 C 700.90 698.40 698.50 696.20 695.40 696.00 Z" fill="#b3b3b3" fill-opacity="0.1" fill-rule="nonzero" group-id="2,6,7" node-id="59" stroke="none" target-height="108.099976" target-width="11" target-x="689.9" target-y="696"></path><path d="M 808.50 702.30 C 808.50 699.50 806.10 696.90 803.00 696.80 C 799.90 696.80 797.40 699.20 797.40 702.30 C 797.40 704.40 798.60 706.20 800.30 707.10 L 799.50 804.90 L 804.80 804.90 L 805.60 707.10 C 807.30 706.20 808.30 704.40 808.50 702.30 Z" fill="#b3b3b3" fill-opacity="0.1" fill-rule="nonzero" group-id="2,6,7" node-id="61" stroke="none" target-height="108.10004" target-width="11.099976" target-x="797.4" target-y="696.8"></path></g><g node-id="140"><path d="M 677.21 739.20 L 677.39 714.40 L 815.89 715.43 L 815.71 740.23 Z" fill="#b3b3b3" fill-opacity="0.1" fill-rule="nonzero" group-id="2,6,8" node-id="66" stroke="none" target-height="25.831604" target-width="138.6847" target-x="677.2072" target-y="714.3959"></path></g><g node-id="141"><path d="M 693.10 714.50 L 692.80 714.90 L 678.30 739.20 L 677.20 739.20 L 677.40 714.50 Z" fill="#b3b3b3" fill-opacity="0.1" fill-rule="nonzero" group-id="2,6,9" node-id="71" stroke="none" target-height="24.700012" target-width="15.899963" target-x="677.2" target-y="714.5"></path></g><g node-id="142"><path d="M 728.10 714.80 L 713.20 739.50 L 694.50 739.40 L 700.30 729.50 L 709.00 714.60 Z" fill="#b3b3b3" fill-opacity="0.1" fill-rule="nonzero" group-id="2,6,10" node-id="76" stroke="none" target-height="24.900024" target-width="33.599976" target-x="694.5" target-y="714.6"></path></g><g node-id="143"><path d="M 763.00 715.10 L 748.20 739.70 L 729.40 739.50 L 744.00 714.90 Z" fill="#b3b3b3" fill-opacity="0.1" fill-rule="nonzero" group-id="2,6,11" node-id="81" stroke="none" target-height="24.799988" target-width="33.599976" target-x="729.4" target-y="714.9"></path></g><g node-id="144"><path d="M 798.00 715.40 L 783.30 740.00 L 764.40 739.80 L 779.10 715.20 Z" fill="#b3b3b3" fill-opacity="0.1" fill-rule="nonzero" group-id="2,6,12" node-id="86" stroke="none" target-height="24.799988" target-width="33.599976" target-x="764.4" target-y="715.2"></path></g><g node-id="145"><path d="M 815.80 715.40 L 815.70 740.30 L 799.30 740.10 L 814.00 715.40 Z" fill="#b3b3b3" fill-opacity="0.1" fill-rule="nonzero" group-id="2,6,13" node-id="91" stroke="none" target-height="24.899963" target-width="16.5" target-x="799.3" target-y="715.4"></path></g><g node-id="146"><path d="M 676.93 777.48 L 677.11 752.68 L 815.61 753.71 L 815.43 778.51 Z" fill="#b3b3b3" fill-opacity="0.1" fill-rule="nonzero" group-id="2,6,14" node-id="96" stroke="none" target-height="25.831604" target-width="138.68475" target-x="676.93" target-y="752.6768"></path></g><g node-id="147"><path d="M 692.80 752.70 L 692.50 753.20 L 678.00 777.50 L 676.90 777.50 L 677.10 752.70 Z" fill="#b3b3b3" fill-opacity="0.1" fill-rule="nonzero" group-id="2,6,15" node-id="101" stroke="none" target-height="24.799988" target-width="15.899963" target-x="676.9" target-y="752.7"></path></g><g node-id="148"><path d="M 727.80 753.00 L 712.90 777.80 L 694.20 777.60 L 700.00 767.70 L 708.70 752.90 Z" fill="#b3b3b3" fill-opacity="0.1" fill-rule="nonzero" group-id="2,6,16" node-id="106" stroke="none" target-height="24.899963" target-width="33.599976" target-x="694.2" target-y="752.9"></path></g><g node-id="149"><path d="M 762.70 753.30 L 747.90 777.90 L 729.10 777.80 L 743.70 753.20 Z" fill="#b3b3b3" fill-opacity="0.1" fill-rule="nonzero" group-id="2,6,17" node-id="111" stroke="none" target-height="24.700012" target-width="33.600037" target-x="729.1" target-y="753.2"></path></g><g node-id="150"><path d="M 797.70 753.60 L 783.10 778.20 L 764.10 778.10 L 778.80 753.50 Z" fill="#b3b3b3" fill-opacity="0.1" fill-rule="nonzero" group-id="2,6,18" node-id="116" stroke="none" target-height="24.700012" target-width="33.600037" target-x="764.1" target-y="753.5"></path></g><g node-id="151"><path d="M 815.50 753.80 L 815.40 778.50 L 799.00 778.40 L 813.70 753.80 Z" fill="#b3b3b3" fill-opacity="0.1" fill-rule="nonzero" group-id="2,6,19" node-id="121" stroke="none" target-height="24.700012" target-width="16.5" target-x="799" target-y="753.8"></path></g><g node-id="152"><path d="M 815.70 740.30 C 815.70 740.30 815.70 740.20 815.70 739.90 L 815.70 738.50 C 815.70 737.40 815.70 735.80 815.70 733.70 C 815.70 729.50 815.80 723.30 815.80 715.40 L 815.90 715.60 L 677.50 714.80 L 677.50 714.80 L 677.70 714.60 C 677.70 723.00 677.50 731.40 677.50 739.40 L 677.40 739.30 L 776.10 740.20 L 805.40 740.30 L 813.30 740.30 L 813.30 740.30 L 805.40 740.30 L 776.10 740.20 L 677.40 739.70 L 677.00 739.70 L 677.20 714.50 L 677.30 714.50 L 815.70 715.70 L 815.80 715.70 L 815.80 715.80 C 815.80 723.80 815.70 729.90 815.70 734.10 C 815.70 736.40 815.70 737.90 815.70 738.90 L 815.70 740.00 L 815.70 740.30 Z" fill="#b3b3b3" fill-opacity="0.1" fill-rule="nonzero" group-id="2,6,20" node-id="126" stroke="none" target-height="25.799988" target-width="138.90002" target-x="677" target-y="714.5"></path></g><path d="M 815.40 778.50 C 815.40 778.50 815.40 778.40 815.40 778.10 L 815.40 776.70 C 815.40 775.60 815.40 774.00 815.40 771.90 C 815.40 767.70 815.50 761.50 815.50 753.60 L 815.60 753.70 L 677.20 753.00 L 677.20 753.00 L 677.40 752.90 C 677.40 761.30 677.20 769.70 677.20 777.70 L 677.10 777.60 L 775.80 778.50 L 805.10 778.60 L 813.00 778.60 L 813.00 778.60 L 805.00 778.60 L 775.70 778.50 L 677.00 778.00 L 676.60 778.00 L 676.80 753.00 L 676.90 753.00 L 815.30 754.20 L 815.40 754.20 L 815.40 754.30 C 815.40 762.30 815.30 768.40 815.30 772.60 C 815.30 774.90 815.30 776.40 815.30 777.40 L 815.30 778.50 C 815.40 778.20 815.40 778.50 815.40 778.50 Z" fill="#b3b3b3" fill-opacity="0.1" fill-rule="nonzero" group-id="2,6,21" node-id="131" stroke="none" target-height="25.699951" target-width="139" target-x="676.6" target-y="752.9"></path></g></g></svg>