<?xml version="1.0" standalone="no"?><!DOCTYPE svg PUBLIC "-//W3C//DTD SVG 1.1//EN" "http://www.w3.org/Graphics/SVG/1.1/DTD/svg11.dtd"><svg height="1024" node-id="1" sillyvg="true" template-height="1024" template-width="1024" version="1.1" viewBox="0 0 1024 1024" width="1024" xmlns="http://www.w3.org/2000/svg" xmlns:xlink="http://www.w3.org/1999/xlink"><defs node-id="31"></defs><g node-id="143"><g node-id="145"><path d="M 595.80 640.50 C 622.30 608.00 637.00 567.20 637.00 524.90 C 637.00 424.50 556.30 342.90 457.10 342.90 C 357.90 342.90 277.20 424.50 277.20 524.90 C 277.20 625.30 357.90 706.90 457.10 706.90 C 494.60 706.90 530.30 695.30 560.80 673.60 L 619.20 732.70 L 653.00 698.50 L 595.80 640.50 Z" fill="#b3b3b3" fill-opacity="0.35" fill-rule="nonzero" group-id="1,3" node-id="39" stroke="none" target-height="389.80002" target-width="375.8" target-x="277.2" target-y="342.9"></path></g><path d="M 458.40 405.60 C 502.80 405.60 542.70 421.80 570.50 447.80 C 545.90 413.60 504.90 391.10 458.40 391.10 C 411.90 391.10 370.80 413.60 346.30 447.80 C 374.10 421.80 414.00 405.60 458.40 405.60 Z" fill="#b3b3b3" fill-opacity="0.35" fill-rule="nonzero" group-id="1,4" node-id="44" stroke="none" target-height="56.69998" target-width="224.20001" target-x="346.3" target-y="391.1"></path></g><g node-id="144"><g node-id="147"><path d="M 643.20 304.90 L 643.20 304.90 C 527.20 304.00 431.50 392.40 421.00 505.80 C 393.20 477.10 354.40 459.10 311.30 458.80 L 311.30 458.80 C 226.10 458.20 156.50 526.80 155.90 612.00 L 154.70 764.10 L 418.10 766.00 L 463.30 766.30 L 861.00 769.30 L 862.80 527.90 C 863.80 405.80 765.40 305.80 643.20 304.90 Z" fill="#b3b3b3" fill-opacity="0.1" fill-rule="nonzero" group-id="2,5" node-id="52" stroke="none" target-height="465.3" target-width="709.1" target-x="154.7" target-y="304"></path></g><g node-id="148"><path d="M 275.40 290.80 C 270.30 290.80 265.60 292.40 261.90 295.20 C 262.20 293.70 262.40 292.20 262.40 290.70 C 262.50 278.20 252.50 268.00 239.90 267.90 C 227.30 267.80 217.20 277.80 217.10 290.40 C 217.10 290.90 217.10 291.30 217.10 291.70 C 214.70 290.80 212.00 290.20 209.30 290.20 C 196.80 290.10 186.60 300.10 186.50 312.70 C 186.30 325.00 196.10 335.10 208.30 335.50 L 208.30 335.50 L 275.20 335.90 C 287.70 336.00 297.90 326.00 298.00 313.40 C 298.00 300.90 287.80 291.00 275.40 290.80 Z" fill="#b3b3b3" fill-opacity="0.3" fill-rule="nonzero" group-id="2,6" node-id="57" stroke="none" target-height="68.20001" target-width="111.7" target-x="186.3" target-y="267.8"></path></g><g node-id="149"><path d="M 844.60 241.00 C 839.50 241.00 834.80 242.70 831.10 245.40 C 831.40 243.90 831.50 242.40 831.50 240.90 C 831.60 228.40 821.60 218.20 809.00 218.10 C 796.40 218.00 786.30 228.00 786.20 240.60 C 786.20 241.10 786.20 241.50 786.20 242.00 C 783.80 241.10 781.10 240.50 778.40 240.50 C 765.90 240.30 755.70 250.40 755.60 263.00 C 755.50 275.30 765.20 285.40 777.40 285.80 L 777.40 285.80 L 844.30 286.30 C 856.80 286.40 867.00 276.40 867.10 263.80 C 867.30 251.10 857.10 241.20 844.60 241.00 Z" fill="#b3b3b3" fill-opacity="0.3" fill-rule="nonzero" group-id="2,7" node-id="62" stroke="none" target-height="68.399994" target-width="111.79999" target-x="755.5" target-y="218"></path></g><g node-id="150"><g node-id="151"><path d="M 695.40 696.00 C 692.20 696.00 689.80 698.40 689.80 701.50 C 689.80 703.80 691.00 705.60 692.80 706.50 L 692.00 804.20 L 697.30 804.20 L 698.10 706.20 C 699.80 705.30 700.80 703.50 700.80 701.50 C 700.90 698.40 698.50 696.20 695.40 696.00 Z" fill="#b3b3b3" fill-opacity="0.1" fill-rule="nonzero" group-id="2,8,9" node-id="69" stroke="none" target-height="108.20001" target-width="11.100037" target-x="689.8" target-y="696"></path><path d="M 808.50 702.30 C 808.50 699.50 806.10 696.90 802.90 696.80 C 799.80 696.80 797.40 699.20 797.40 702.30 C 797.40 704.40 798.60 706.20 800.30 707.10 L 799.50 804.90 L 804.80 804.90 L 805.60 707.10 C 807.30 706.20 808.30 704.40 808.50 702.30 Z" fill="#b3b3b3" fill-opacity="0.1" fill-rule="nonzero" group-id="2,8,9" node-id="71" stroke="none" target-height="108.10004" target-width="11.099976" target-x="797.4" target-y="696.8"></path></g><g node-id="152"><path d="M 677.21 739.20 L 677.39 714.40 L 815.89 715.43 L 815.71 740.23 Z" fill="#b3b3b3" fill-opacity="0.1" fill-rule="nonzero" group-id="2,8,10" node-id="76" stroke="none" target-height="25.831604" target-width="138.6847" target-x="677.20734" target-y="714.39734"></path></g><g node-id="153"><path d="M 693.10 714.50 L 692.80 714.90 L 678.30 739.20 L 677.20 739.20 L 677.40 714.50 Z" fill="#b3b3b3" fill-opacity="0.1" fill-rule="nonzero" group-id="2,8,11" node-id="81" stroke="none" target-height="24.700012" target-width="15.899963" target-x="677.2" target-y="714.5"></path></g><g node-id="154"><path d="M 728.10 714.80 L 713.20 739.50 L 694.50 739.40 L 700.30 729.50 L 709.00 714.60 Z" fill="#b3b3b3" fill-opacity="0.1" fill-rule="nonzero" group-id="2,8,12" node-id="86" stroke="none" target-height="24.900024" target-width="33.599976" target-x="694.5" target-y="714.6"></path></g><g node-id="155"><path d="M 763.00 715.10 L 748.20 739.70 L 729.40 739.50 L 744.00 714.90 Z" fill="#b3b3b3" fill-opacity="0.1" fill-rule="nonzero" group-id="2,8,13" node-id="91" stroke="none" target-height="24.799988" target-width="33.599976" target-x="729.4" target-y="714.9"></path></g><g node-id="156"><path d="M 798.00 715.40 L 783.30 740.00 L 764.40 739.80 L 779.10 715.20 Z" fill="#b3b3b3" fill-opacity="0.1" fill-rule="nonzero" group-id="2,8,14" node-id="96" stroke="none" target-height="24.799988" target-width="33.599976" target-x="764.4" target-y="715.2"></path></g><g node-id="157"><path d="M 815.80 715.40 L 815.70 740.30 L 799.30 740.10 L 814.00 715.40 Z" fill="#b3b3b3" fill-opacity="0.1" fill-rule="nonzero" group-id="2,8,15" node-id="101" stroke="none" target-height="24.899963" target-width="16.5" target-x="799.3" target-y="715.4"></path></g><g node-id="158"><path d="M 676.93 777.48 L 677.11 752.68 L 815.61 753.71 L 815.43 778.51 Z" fill="#b3b3b3" fill-opacity="0.1" fill-rule="nonzero" group-id="2,8,16" node-id="106" stroke="none" target-height="25.831604" target-width="138.68475" target-x="676.92993" target-y="752.6784"></path></g><g node-id="159"><path d="M 692.80 752.70 L 692.50 753.20 L 678.00 777.50 L 676.90 777.50 L 677.10 752.70 Z" fill="#b3b3b3" fill-opacity="0.1" fill-rule="nonzero" group-id="2,8,17" node-id="111" stroke="none" target-height="24.799988" target-width="15.899963" target-x="676.9" target-y="752.7"></path></g><g node-id="160"><path d="M 727.80 753.00 L 712.90 777.80 L 694.20 777.60 L 700.00 767.70 L 708.70 752.90 Z" fill="#b3b3b3" fill-opacity="0.1" fill-rule="nonzero" group-id="2,8,18" node-id="116" stroke="none" target-height="24.899963" target-width="33.599976" target-x="694.2" target-y="752.9"></path></g><g node-id="161"><path d="M 762.70 753.30 L 747.90 777.90 L 729.10 777.80 L 743.70 753.20 Z" fill="#b3b3b3" fill-opacity="0.1" fill-rule="nonzero" group-id="2,8,19" node-id="121" stroke="none" target-height="24.700012" target-width="33.600037" target-x="729.1" target-y="753.2"></path></g><g node-id="162"><path d="M 797.70 753.60 L 783.10 778.20 L 764.10 778.10 L 778.80 753.50 Z" fill="#b3b3b3" fill-opacity="0.1" fill-rule="nonzero" group-id="2,8,20" node-id="126" stroke="none" target-height="24.700012" target-width="33.600037" target-x="764.1" target-y="753.5"></path></g><g node-id="163"><path d="M 815.50 753.80 L 815.40 778.50 L 799.00 778.40 L 813.70 753.80 Z" fill="#b3b3b3" fill-opacity="0.1" fill-rule="nonzero" group-id="2,8,21" node-id="131" stroke="none" target-height="24.700012" target-width="16.5" target-x="799" target-y="753.8"></path></g><g node-id="164"><path d="M 815.70 740.30 C 815.70 740.30 815.70 740.20 815.70 739.80 L 815.70 738.40 C 815.70 737.30 815.70 735.70 815.70 733.60 C 815.70 729.40 815.80 723.20 815.80 715.30 L 815.90 715.50 L 677.40 714.70 L 677.40 714.70 L 677.60 714.50 C 677.60 722.90 677.40 731.30 677.40 739.30 L 677.30 739.20 L 776.00 740.10 L 805.30 740.20 L 813.30 740.20 L 813.30 740.20 L 805.30 740.20 L 776.00 740.10 L 677.30 739.70 L 676.90 739.70 L 677.10 714.50 L 677.20 714.50 L 815.70 715.70 L 815.80 715.70 L 815.80 715.80 C 815.80 723.80 815.70 729.90 815.70 734.10 C 815.70 736.40 815.70 737.90 815.70 738.90 L 815.70 739.90 L 815.70 740.30 Z" fill="#b3b3b3" fill-opacity="0.1" fill-rule="nonzero" group-id="2,8,22" node-id="136" stroke="none" target-height="25.799988" target-width="139" target-x="676.9" target-y="714.5"></path></g><path d="M 815.40 778.50 C 815.40 778.50 815.40 778.40 815.40 778.10 L 815.40 776.70 C 815.40 775.60 815.40 774.00 815.40 771.90 C 815.40 767.70 815.50 761.50 815.50 753.60 L 815.60 753.70 L 677.20 753.00 L 677.20 753.00 L 677.40 752.90 C 677.40 761.30 677.20 769.70 677.20 777.70 L 677.10 777.60 L 775.80 778.50 L 805.10 778.60 L 813.10 778.60 L 813.10 778.60 L 805.10 778.60 L 775.80 778.50 L 677.10 778.00 L 676.70 778.00 L 676.90 752.90 L 677.00 752.90 L 815.50 754.10 L 815.60 754.10 L 815.60 754.20 C 815.60 762.20 815.50 768.30 815.50 772.50 C 815.50 774.80 815.50 776.30 815.50 777.30 L 815.50 778.40 C 815.40 778.20 815.40 778.50 815.40 778.50 Z" fill="#b3b3b3" fill-opacity="0.1" fill-rule="nonzero" group-id="2,8,23" node-id="141" stroke="none" target-height="25.699951" target-width="138.89996" target-x="676.7" target-y="752.9"></path></g></g></svg>