<?xml version="1.0" standalone="no"?><!DOCTYPE svg PUBLIC "-//W3C//DTD SVG 1.1//EN" "http://www.w3.org/Graphics/SVG/1.1/DTD/svg11.dtd"><svg height="1200" node-id="1" sillyvg="true" template-height="1200" template-width="1200" version="1.1" viewBox="0 0 1200 1200" width="1200" xmlns="http://www.w3.org/2000/svg" xmlns:xlink="http://www.w3.org/1999/xlink"><defs node-id="31"><clipPath id="clip-path" node-id="5"><path d="M 1062.13 600.00 C 1062.13 722.56 1013.44 840.11 926.78 926.78 C 840.11 1013.44 722.56 1062.13 600.00 1062.13 C 477.44 1062.13 359.89 1013.44 273.22 926.78 C 186.56 840.11 137.87 722.56 137.87 600.00 C 137.87 477.44 186.56 359.89 273.22 273.22 C 359.89 186.56 477.44 137.87 600.00 137.87 C 722.56 137.87 840.11 186.56 926.78 273.22 C 1013.44 359.89 1062.13 477.44 1062.13 600.00 Z" fill="#000000" fill-rule="nonzero" node-id="34" stroke="none" target-height="924.26" target-width="924.26" target-x="137.87" target-y="137.87"></path></clipPath></defs><path d="M 1062.13 600.00 C 1062.13 722.56 1013.44 840.11 926.78 926.78 C 840.11 1013.44 722.56 1062.13 600.00 1062.13 C 477.44 1062.13 359.89 1013.44 273.22 926.78 C 186.56 840.11 137.87 722.56 137.87 600.00 C 137.87 477.44 186.56 359.89 273.22 273.22 C 359.89 186.56 477.44 137.87 600.00 137.87 C 722.56 137.87 840.11 186.56 926.78 273.22 C 1013.44 359.89 1062.13 477.44 1062.13 600.00 Z" fill="#f6bdc5" fill-rule="nonzero" node-id="38" stroke="none" target-height="924.26" target-width="924.26" target-x="137.87" target-y="137.87"></path><g node-id="80"><g clip-path="url(#clip-path)" group-id="1" id="sillyvg_g_0" node-id="40"><path d="M 489.02 781.94 L 477.36 946.90 L 605.17 1128.03 L 722.64 965.48 L 714.28 785.93 L 509.23 779.16 L 489.02 781.94 Z" fill="#eab9b1" fill-rule="nonzero" group-id="1" node-id="42" stroke="#370911" stroke-linecap="butt" stroke-width="14" target-height="348.87006" target-width="245.28003" target-x="477.36" target-y="779.16"></path><path d="M 779.92 337.13 C 779.92 337.13 713.52 462.13 558.68 446.68 L 403.84 431.19 L 400.62 413.00 C 400.62 413.00 420.90 469.52 388.35 498.71 L 355.81 527.90 L 355.81 540.40 C 355.81 540.40 365.50 641.28 379.19 672.20 C 392.88 703.12 531.43 786.20 481.51 888.20 C 431.59 990.20 351.70 979.20 351.70 979.20 L 351.70 979.20 C 351.70 979.20 267.58 1030.08 196.35 953.61 C 125.12 877.14 94.16 840.00 112.74 793.52 C 131.32 747.04 184.00 672.72 184.00 672.72 C 184.00 672.72 86.71 656.72 107.48 593.51 C 128.25 530.30 91.76 472.29 137.87 464.13 C 183.98 455.97 293.00 421.90 303.53 387.84 L 314.00 353.77 C 314.00 353.77 425.52 228.23 574.16 208.94 C 722.80 189.65 665.70 189.65 722.81 189.65 C 779.92 189.65 868.35 282.55 880.74 338.29 L 893.13 394.00 L 874.55 498.66 C 874.55 498.66 985.00 567.00 980.86 686.45 C 976.72 805.90 958.07 915.84 927.27 943.71 C 896.47 971.58 865.67 999.45 832.53 999.45 C 799.39 999.45 769.64 967.59 722.64 905.67 C 675.64 843.75 715.29 807.53 715.29 807.53 C 715.29 807.53 794.34 726.79 818.81 643.05 C 843.28 559.31 801.63 431.87 799.38 413.00 C 797.13 394.13 779.92 337.13 779.92 337.13 Z" fill="#211d1e" fill-rule="nonzero" group-id="1" node-id="44" stroke="none" target-height="840.42993" target-width="898.29" target-x="86.71" target-y="189.65"></path><path d="M 896.47 594.00 C 896.47 633.85 870.38 672.15 838.19 672.15 C 806.00 672.15 779.92 639.85 779.92 600.00 C 779.92 560.15 813.01 527.85 845.19 527.85 C 877.37 527.85 896.47 554.15 896.47 594.00 Z" fill="#fde9d1" fill-rule="nonzero" group-id="1" node-id="46" stroke="#370911" stroke-linecap="butt" stroke-width="14" target-height="144.30005" target-width="116.54999" target-x="779.92" target-y="527.85"></path><path d="M 421.08 600.00 C 421.08 639.85 394.99 672.15 362.81 672.15 C 330.63 672.15 303.53 633.85 303.53 594.00 C 303.53 554.15 323.62 527.85 355.81 527.85 C 388.00 527.85 421.08 560.15 421.08 600.00 Z" fill="#fde9d1" fill-rule="nonzero" group-id="1" node-id="48" stroke="#370911" stroke-linecap="butt" stroke-width="14" target-height="144.30005" target-width="117.54999" target-x="303.53" target-y="527.85"></path><path d="M 843.28 559.30 C 843.28 714.72 734.86 840.72 601.11 840.72 C 467.36 840.72 358.94 714.72 358.94 559.30 C 358.94 403.88 467.36 277.88 601.11 277.88 C 734.86 277.88 843.28 403.88 843.28 559.30 Z" fill="#f9d9d0" fill-rule="nonzero" group-id="1" node-id="50" stroke="#370911" stroke-linecap="butt" stroke-width="14" target-height="562.83997" target-width="484.34003" target-x="358.94" target-y="277.88"></path><path d="M 526.95 548.08 C 526.95 562.61 514.93 574.39 500.11 574.39 C 485.29 574.39 473.27 562.61 473.27 548.08 C 473.27 533.55 485.29 521.77 500.11 521.77 C 514.93 521.77 526.95 533.55 526.95 548.08 Z" fill="#271d1f" fill-rule="nonzero" group-id="1" node-id="52" stroke="none" target-height="52.619995" target-width="53.680023" target-x="473.27" target-y="521.77"></path><path d="M 719.46 548.08 C 719.46 562.61 707.44 574.39 692.62 574.39 C 677.80 574.39 665.78 562.61 665.78 548.08 C 665.78 533.55 677.80 521.77 692.62 521.77 C 707.44 521.77 719.46 533.55 719.46 548.08 Z" fill="#271d1f" fill-rule="nonzero" group-id="1" node-id="54" stroke="none" target-height="52.619995" target-width="53.679993" target-x="665.78" target-y="521.77"></path><path d="M 700.49 479.23 C 737.14 480.78 743.49 495.68 743.49 495.68" fill="none" group-id="1" node-id="56" stroke="#231815" stroke-linecap="round" stroke-width="20" target-height="16.449982" target-width="43" target-x="700.49" target-y="479.23"></path><path d="M 456.47 494.68 C 456.47 494.68 462.31 477.68 498.96 479.23" fill="none" group-id="1" node-id="58" stroke="#231815" stroke-linecap="round" stroke-width="20" target-height="17" target-width="42.48999" target-x="456.47" target-y="477.68"></path><path d="M 672.79 684.32 C 672.79 706.27 640.21 724.06 600.02 724.06 C 559.83 724.06 527.25 706.27 527.25 684.32 C 527.25 662.37 559.83 644.58 600.02 644.58 C 640.21 644.58 672.79 662.37 672.79 684.32 Z" fill="#ee8685" fill-rule="nonzero" group-id="1" node-id="60" stroke="#310304" stroke-linecap="butt" stroke-width="10" target-height="79.47998" target-width="145.53998" target-x="527.25" target-y="644.58"></path><path d="M 545.92 705.77 C 559.58 714.02 579.65 719.77 601.62 719.77 C 625.37 719.77 640.40 715.21 654.07 705.77 C 649.69 692.65 629.36 686.45 600.75 686.45 C 570.65 686.45 548.37 691.65 545.92 705.77 Z" fill="#e5415b" fill-rule="nonzero" group-id="1" node-id="62" stroke="none" target-height="33.320007" target-width="108.150024" target-x="545.92" target-y="686.45"></path><path d="M 603.90 672.72 C 636.97 672.72 652.55 671.72 666.20 666.31 C 662.05 652.62 653.89 646.22 599.98 649.13 C 548.98 646.43 538.91 652.24 533.77 664.34 C 545.38 671.47 561.93 672.72 603.90 672.72 Z" fill="#ffffff" fill-rule="nonzero" group-id="1" node-id="64" stroke="none" target-height="26.5" target-width="132.43" target-x="533.77" target-y="646.22"></path><path d="M 499.68 643.05 C 499.68 670.40 477.50 692.58 450.15 692.58 C 422.80 692.58 400.62 670.40 400.62 643.05 C 400.62 615.70 422.80 593.52 450.15 593.52 C 477.50 593.52 499.68 615.70 499.68 643.05 Z" fill="#de717e" fill-rule="nonzero" group-id="1" node-id="66" stroke="none" target-height="99.06" target-width="99.06" target-x="400.62" target-y="593.52"></path><path d="M 799.38 643.05 C 799.38 670.40 777.20 692.58 749.85 692.58 C 722.50 692.58 700.32 670.40 700.32 643.05 C 700.32 615.70 722.50 593.52 749.85 593.52 C 777.20 593.52 799.38 615.70 799.38 643.05 Z" fill="#de717e" fill-rule="nonzero" group-id="1" node-id="68" stroke="none" target-height="99.06" target-width="99.06" target-x="700.32" target-y="593.52"></path><path d="M 839.16 979.19 C 882.16 1023.07 980.86 1247.39 980.86 1247.39 L 597.61 1335.65 L 597.61 1091.77 L 734.24 911.05 C 734.24 911.05 795.27 934.44 839.16 979.19 Z" fill="#404057" fill-rule="nonzero" group-id="1" node-id="70" stroke="#370911" stroke-linecap="butt" stroke-width="14" target-height="424.60004" target-width="383.25" target-x="597.61" target-y="911.05"></path><path d="M 351.70 979.19 C 308.70 1023.07 209.99 1247.39 209.99 1247.39 L 593.24 1335.65 L 593.24 1091.77 L 456.62 911.05 C 456.62 911.05 395.58 934.44 351.70 979.19 Z" fill="#404057" fill-rule="nonzero" group-id="1" node-id="72" stroke="#370911" stroke-linecap="butt" stroke-width="14" target-height="424.60004" target-width="383.25" target-x="209.99" target-y="911.05"></path><path d="M 734.40 888.17 L 597.61 1091.77 L 764.78 1046.03 L 715.70 1002.88 L 781.10 965.58 L 747.32 909.60 L 734.40 888.17 Z" fill="#ffffff" fill-rule="nonzero" group-id="1" node-id="74" stroke="#370911" stroke-linecap="round" stroke-width="14" target-height="203.60004" target-width="183.48999" target-x="597.61" target-y="888.17"></path><path d="M 465.60 888.17 L 602.39 1091.77 L 435.22 1046.03 L 484.30 1002.88 L 418.90 965.58 L 452.68 909.60 L 465.60 888.17 Z" fill="#ffffff" fill-rule="nonzero" group-id="1" node-id="76" stroke="#370911" stroke-linecap="round" stroke-width="14" target-height="203.60004" target-width="183.49002" target-x="418.9" target-y="888.17"></path><path d="M 309.39 527.85 C 318.10 544.06 364.61 518.94 368.72 516.27 L 388.35 498.66 C 409.08 480.08 408.35 450.43 405.15 431.32 L 558.68 446.68 C 713.52 462.16 779.92 365.13 779.92 365.13 C 779.92 365.13 788.54 408.31 806.42 438.94 C 824.30 469.57 812.65 462.94 820.28 510.77 C 849.77 541.65 887.97 521.77 875.07 498.99 L 874.55 498.66 L 893.13 394.00 L 880.74 338.26 C 868.35 282.52 779.92 189.62 722.81 189.62 C 665.70 189.62 669.93 202.00 545.92 202.00 C 421.91 202.00 314.00 353.77 314.00 353.77 L 303.50 387.84 C 301.50 394.49 295.63 401.13 287.28 407.58 C 308.79 431.00 298.67 507.92 309.39 527.85 Z" fill="#211d1e" fill-rule="nonzero" group-id="1" node-id="78" stroke="none" target-height="354.44" target-width="605.85" target-x="287.28" target-y="189.62"></path></g></g></svg>