<svg viewBox="0 0 1200 1200" xmlns:xlink="http://www.w3.org/1999/xlink" xmlns="http://www.w3.org/2000/svg" id="图层_1"><defs><style>.cls-1{fill:none;}.cls-2{fill:#17a18b;}.cls-3{clip-path:url(#clip-path);}.cls-13,.cls-4{fill:#fff;}.cls-4,.cls-5,.cls-7,.cls-8,.cls-9{stroke:#370911;}.cls-11,.cls-4,.cls-5,.cls-7,.cls-8,.cls-9{stroke-miterlimit:10;}.cls-16,.cls-4,.cls-5,.cls-7,.cls-8,.cls-9{stroke-width:14px;}.cls-5{fill:#e84660;}.cls-6{clip-path:url(#clip-path-2);}.cls-7{fill:#eab9b1;}.cls-8{fill:#fde9d1;}.cls-9{fill:#f9d9d0;}.cls-10{fill:#271d1f;}.cls-11{fill:#ee8685;stroke:#310304;stroke-width:10px;}.cls-12{fill:#e5415b;}.cls-14{fill:#de717e;}.cls-15{fill:#3c211a;}.cls-16{fill:#040000;stroke:#360810;stroke-linecap:round;stroke-linejoin:round;}.cls-17{fill:#351c14;}</style><clipPath id="clip-path"><circle r="462.13" cy="-640.26" cx="600" class="cls-1"></circle></clipPath><clipPath id="clip-path-2"><circle r="462.13" cy="600" cx="600" class="cls-1"></circle></clipPath></defs><title>卡通头像</title><circle r="462.13" cy="600" cx="600" class="cls-2"></circle><g class="cls-3"><path d="M890-271.39c-22.46-41.8-163.38-105.67-163.38-105.67L600.09-220.9l.61,358.29,325.71-11.62S912.47-229.58,890-271.39Z" class="cls-4"></path><path d="M310-271.39c-22.46,41.81-36.4,397.16-36.4,397.16L599.3,137.39l.61-357.29L473.37-377.06S332.45-313.19,310-271.39Z" class="cls-4"></path><path d="M775.41-353.09S677.34-158.74,658-132.42s-48.75,43.36-48.75,43.36L601.37,44.1l254.08,4.64,54.81-189.37s0-75-15-114.94c-9.86-26.25-28-40.57-28-40.57Z" class="cls-5"></path><path d="M422.56-353.09S520.63-158.74,540-132.42s48.75,43.36,48.75,43.36L596.59,44.1,342.52,48.74,287.71-140.63s11.45-84.6,15.82-109.55c4.84-27.62,27.21-46,27.21-46Z" class="cls-5"></path></g><g class="cls-6"><polygon points="477.37 781.94 464.34 946.9 622.79 1015.03 738.41 965.48 729.07 785.93 499.95 779.16 477.37 781.94" class="cls-7"></polygon><path d="M896.47,594c0,39.85-26.09,78.15-58.28,78.15s-58.27-32.3-58.27-72.15,33.09-72.15,65.27-72.15S896.47,554.15,896.47,594Z" class="cls-8"></path><path d="M421.08,600c0,39.85-26.09,72.15-58.27,72.15s-59.28-38.3-59.28-78.15,20.09-66.15,52.28-66.15S421.08,560.15,421.08,600Z" class="cls-8"></path><ellipse ry="281.42" rx="242.17" cy="559.3" cx="601.11" class="cls-9"></ellipse><ellipse ry="29.16" rx="26.84" cy="554.23" cx="500.11" class="cls-10"></ellipse><ellipse ry="29.16" rx="26.84" cy="554.23" cx="692.62" class="cls-10"></ellipse><ellipse ry="39.74" rx="72.77" cy="684.32" cx="600.02" class="cls-11"></ellipse><path d="M545.92,705.77c13.66,8.25,33.73,14,55.7,14,23.75,0,38.78-4.56,52.45-14-4.38-13.12-24.71-19.32-53.32-19.32C570.65,686.45,548.37,691.65,545.92,705.77Z" class="cls-12"></path><path d="M603.9,672.72c33.07,0,48.65-1,62.3-6.41-4.15-13.69-12.31-20.09-66.22-17.18-51-2.7-61.07,3.11-66.21,15.21C545.38,671.47,561.93,672.72,603.9,672.72Z" class="cls-13"></path><circle r="49.53" cy="643.05" cx="450.15" class="cls-14"></circle><circle r="49.53" cy="643.05" cx="749.85" class="cls-14"></circle><path d="M601.37,204.9c-7,.07-14,.38-21.08,1C450.2,216.7,373,303.49,351.4,360.7c-42.83,113.55,0,253.55,0,253.55s5.89,33.34,22.93-38.11-3.1-99.83,10.84-112.73,3.09,5.68,20.12-28.39,7.16-76.57,46.46-88.25C477.94,339,539.9,334.59,601.37,334Z" class="cls-15"></path><path d="M601.37,204.9q10.5.1,21.08,1c130.1,10.84,207.31,97.63,228.9,154.84,42.83,113.55,0,253.55,0,253.55s-5.9,33.34-22.93-38.11,3.1-99.83-10.84-112.73-3.09,5.68-20.13-28.39S790.3,358.45,751,346.77C724.81,339,662.85,334.59,601.37,334Z" class="cls-15"></path><path d="M471.32,872.61s5.61,25.26,15.9,25.26,107.59-1.87,147.81,0,96.36-2.8,96.36-12.63V853.9s33.68,5.09,41.16,22.19-.93,31.14,4.68,38.62,71.1,31.81,106.65,53.33,293.75,76.71,293.75,76.71l63.62,12.16,24.32,336.78L-17.95,1339.43l9.35-267.55s299.37-70.17,333-72-9.35-29.93,35.55-37.42,68.3-20.58,84.2-24.32,1.87-44,7.48-51.45S471.32,872.61,471.32,872.61Z" class="cls-16"></path><path d="M391.5,276.6s-12.85-37.93,21.41-45.89,50.17,0,50.17,0,.62-6.11,14.08-9.17,20.19,0,20.19,0-3.06-19,15.29-18.36,25.7,0,25.7,0,3.67-41.59,41.6-36.09,52.62,37.33,52.62,37.33,18.35-14.69,36.71-6.73S703.53,213,703.53,213s34.88-18.35,49-4.28,12.85,36.71,12.85,36.71S777.56,235,791,249.68s19,26.92,19,26.92,22-25.69,34.26,12.85,9.18,45.28,9.18,45.28,37.32,26.92,33,72.8-23.25,63-23.25,63-4.28,26.92-31.82,26.92-48.94-30-48.94-30,5.5,12.85-33.65,11-45.89-17.74-45.89-17.74-3.06,23.25-36.1,9.79-35.48-25.7-35.48-25.7-12.24,37.94-55.07,31.82-55.06-8.57-55.06-8.57,6.73-29.36-30.59-19.58-37.32,30.6-37.32,30.6-6.74,11-33.66,9.79-36.09-4.29-36.09-4.29-11,27.53-26.92,25.7S330.93,465,336.44,451s-39.16-47.72-17.13-84.43,53.22-52,53.22-52-3.06-15.9,4.9-22S391.5,276.6,391.5,276.6Z" class="cls-17"></path></g></svg>